<?xml version="1.0" encoding="UTF-8" standalone="no"?>
<!-- Created with Inkscape (http://www.inkscape.org/) -->

<svg
   width="40"
   height="40"
   viewBox="0 0 10.583333 10.583333"
   version="1.1"
   id="svg1"
   xmlns="http://www.w3.org/2000/svg"
   xmlns:svg="http://www.w3.org/2000/svg">
  <defs
     id="defs1" />
  <g
     id="g20"
     transform="translate(-29.104165,-2.6458335)">
    <path
       style="fill:#ffffff;fill-opacity:1;stroke:#ffffff;stroke-width:0;stroke-linecap:butt;stroke-linejoin:miter;stroke-miterlimit:4;stroke-dasharray:none;stroke-opacity:1"
       d="M 33.48713,4.4687499 V 11.40625 a 0.22177485,0.22177485 156.08033 0 1 -0.370633,0.164394 L 29.474799,8.2731059 a 0.45274728,0.45274728 90 0 1 0,-0.6712119 l 3.641698,-3.2975382 a 0.22177485,0.22177485 23.919666 0 1 0.370633,0.1643941 z"
       id="path15"
       transform="translate(-0.22177501)" />
    <path
       style="fill:#ffffff;fill-opacity:1;stroke:#ffffff;stroke-width:0;stroke-linecap:butt;stroke-linejoin:miter;stroke-dasharray:none;stroke-opacity:1"
       d="m 31.749999,6.0854166 7.441674,-0.1247491 a 0.21505073,0.21505073 63.496915 0 1 0.173173,0.3472835 l -1.11729,1.4324233 a 0.32051292,0.32051292 90 0 0 0,0.3942512 l 1.11729,1.4324233 A 0.21505073,0.21505073 116.50309 0 1 39.191673,9.9143323 L 31.749999,9.7895832 Z"
       id="path19"
       transform="translate(0.2707845)" />
  </g>
</svg>
