<?xml version="1.0" encoding="UTF-8" standalone="no"?>
<!-- Created with Inkscape (http://www.inkscape.org/) -->

<svg
   width="40"
   height="40"
   viewBox="0 0 10.583333 10.583333"
   version="1.1"
   id="svg1"
   xmlns="http://www.w3.org/2000/svg"
   xmlns:svg="http://www.w3.org/2000/svg">
  <defs
     id="defs1" />
  <g
     id="layer2"
     transform="translate(-15.875,-2.6458332)">
    <path
       id="rect2"
       style="color:#000000;fill:#fdfdfd;stroke:none;stroke-width:1.00013;stroke-dasharray:none"
       d="m 15.875,7.7324219 v 4.2167971 c 0,0.700194 0.579103,1.279297 1.279297,1.279297 h 2.689453 2.689453 c 0.700194,0 1.279297,-0.579103 1.279297,-1.279297 V 7.7324219 c -0.201469,0.3899939 -0.576444,0.7265625 -1.169922,0.7265625 h -0.154297 v 3.2246096 c 0,0.128229 -0.09247,0.220703 -0.220703,0.220703 H 19.84375 17.419922 c -0.128232,0 -0.220703,-0.09247 -0.220703,-0.220703 V 8.4589844 h -0.154297 c -0.593478,0 -0.968453,-0.3365686 -1.169922,-0.7265625 z"
       transform="translate(1.3229165)" />
    <path
       style="color:#000000;fill:#fdfdfd;-inkscape-stroke:none"
       d="m 17.197916,2.8958333 v 3.7620263 c 0,0.7001948 0.579102,1.2792969 1.279297,1.2792969 h 5.378906 c 0.700195,0 1.279297,-0.5791021 1.279297,-1.2792969 V 2.8958333 a 0.25,0.25 45 0 0 -0.25,-0.25 h -7.4375 a 0.25,0.25 135 0 0 -0.25,0.25 z M 18.520833,3.96875 H 23.8125 v 2.4246214 c 0,0.1282314 -0.09271,0.221212 -0.220947,0.221212 h -4.849772 c -0.128232,0 -0.220948,-0.092981 -0.220948,-0.221212 z"
       id="path3" />
    <path
       style="fill:#ffffff;fill-opacity:1;stroke:none;stroke-width:1.00012;stroke-dasharray:none"
       id="path12"
       width="1.3229166"
       height="3.175"
       x="16.179893"
       y="3.353539"
       transform="rotate(180,21.186821,4.8517695)"
       d="m 16.929893,3.353539 h 0.572917 v 3.1749999 h -0.572917 a 0.75,0.75 45 0 1 -0.75,-0.75 V 4.103539 a 0.75,0.75 135 0 1 0.75,-0.75 z" />
    <path
       style="fill:#ffffff;fill-opacity:1;stroke:none;stroke-width:1.00012;stroke-dasharray:none"
       id="path14"
       width="1.3229166"
       height="3.175"
       x="16.179893"
       y="3.353539"
       transform="translate(-0.04031012,-0.17853893)"
       d="m 16.929893,3.353539 h 0.572917 v 3.1749999 h -0.572917 a 0.75,0.75 45 0 1 -0.75,-0.75 V 4.103539 a 0.75,0.75 135 0 1 0.75,-0.75 z" />
  </g>
</svg>
