<?xml version="1.0" encoding="UTF-8" standalone="no"?>
<!-- Created with Inkscape (http://www.inkscape.org/) -->

<svg
   width="10.583334mm"
   height="10.583334mm"
   viewBox="0 0 10.583334 10.583334"
   version="1.1"
   id="svg1"
   sodipodi:docname="CU Icons.svg"
   inkscape:version="1.3 (0e150ed6c4, 2023-07-21)"
   xmlns:inkscape="http://www.inkscape.org/namespaces/inkscape"
   xmlns:sodipodi="http://sodipodi.sourceforge.net/DTD/sodipodi-0.dtd"
   xmlns="http://www.w3.org/2000/svg"
   xmlns:svg="http://www.w3.org/2000/svg">
  <sodipodi:namedview
     id="namedview1"
     pagecolor="#818181"
     bordercolor="#999999"
     borderopacity="1"
     inkscape:showpageshadow="true"
     inkscape:pageopacity="0"
     inkscape:pagecheckerboard="0"
     inkscape:deskcolor="#d1d1d1"
     inkscape:document-units="px"
     showborder="true"
     borderlayer="true"
     inkscape:zoom="2"
     inkscape:cx="112.5"
     inkscape:cy="122.75"
     inkscape:window-width="1920"
     inkscape:window-height="1057"
     inkscape:window-x="-8"
     inkscape:window-y="-8"
     inkscape:window-maximized="1"
     inkscape:current-layer="layer2" />
  <defs
     id="defs1">
    <inkscape:path-effect
       effect="fillet_chamfer"
       id="path-effect61"
       is_visible="true"
       lpeversion="1"
       nodesatellites_param="F,0,0,1,0,0.75,0,1 @ F,0,0,1,0,0.75,0,1 @ F,0,0,1,0,0.75,0,1 @ F,0,0,1,0,0.75,0,1"
       radius="0.75"
       unit="px"
       method="auto"
       mode="F"
       chamfer_steps="1"
       flexible="false"
       use_knot_distance="true"
       apply_no_radius="true"
       apply_with_radius="true"
       only_selected="false"
       hide_knots="false" />
    <inkscape:path-effect
       effect="fillet_chamfer"
       id="path-effect59"
       is_visible="true"
       lpeversion="1"
       nodesatellites_param="F,0,0,1,0,0.75,0,1 @ F,0,0,1,0,0.75,0,1 @ F,0,0,1,0,0.75,0,1 @ F,0,0,1,0,0.75,0,1"
       radius="0.75"
       unit="px"
       method="auto"
       mode="F"
       chamfer_steps="1"
       flexible="false"
       use_knot_distance="true"
       apply_no_radius="true"
       apply_with_radius="true"
       only_selected="false"
       hide_knots="false" />
    <inkscape:path-effect
       effect="fillet_chamfer"
       id="path-effect57"
       is_visible="true"
       lpeversion="1"
       nodesatellites_param="F,0,0,1,0,0.75,0,1 @ F,0,0,1,0,0.75,0,1 @ F,0,0,1,0,0.75,0,1 @ F,0,0,1,0,0.75,0,1"
       radius="0.75"
       unit="px"
       method="auto"
       mode="F"
       chamfer_steps="1"
       flexible="false"
       use_knot_distance="true"
       apply_no_radius="true"
       apply_with_radius="true"
       only_selected="false"
       hide_knots="false" />
    <inkscape:path-effect
       effect="fillet_chamfer"
       id="path-effect55"
       is_visible="true"
       lpeversion="1"
       nodesatellites_param="F,0,0,1,0,0.75,0,1 @ F,0,0,1,0,0.75,0,1 @ F,0,0,1,0,0.75,0,1 @ F,0,0,1,0,0.75,0,1"
       radius="0.75"
       unit="px"
       method="auto"
       mode="F"
       chamfer_steps="1"
       flexible="false"
       use_knot_distance="true"
       apply_no_radius="true"
       apply_with_radius="true"
       only_selected="false"
       hide_knots="false" />
    <inkscape:path-effect
       effect="fillet_chamfer"
       id="path-effect53"
       is_visible="true"
       lpeversion="1"
       nodesatellites_param="F,0,0,1,0,0.75,0,1 @ F,0,0,1,0,0.75,0,1 @ F,0,0,1,0,0.75,0,1 @ F,0,0,1,0,0.75,0,1"
       radius="0.75"
       unit="px"
       method="auto"
       mode="F"
       chamfer_steps="1"
       flexible="false"
       use_knot_distance="true"
       apply_no_radius="true"
       apply_with_radius="true"
       only_selected="false"
       hide_knots="false" />
    <inkscape:path-effect
       effect="fillet_chamfer"
       id="path-effect51"
       is_visible="true"
       lpeversion="1"
       nodesatellites_param="F,0,0,1,0,0.75,0,1 @ F,0,0,1,0,0.75,0,1 @ F,0,0,1,0,0.75,0,1 @ F,0,0,1,0,0.75,0,1"
       radius="0.75"
       unit="px"
       method="auto"
       mode="F"
       chamfer_steps="1"
       flexible="false"
       use_knot_distance="true"
       apply_no_radius="true"
       apply_with_radius="true"
       only_selected="false"
       hide_knots="false" />
    <inkscape:path-effect
       effect="fillet_chamfer"
       id="path-effect49"
       is_visible="true"
       lpeversion="1"
       nodesatellites_param="F,0,0,1,0,0.75,0,1 @ F,0,0,1,0,0.75,0,1 @ F,0,0,1,0,0.75,0,1 @ F,0,0,1,0,0.75,0,1"
       radius="0.75"
       unit="px"
       method="auto"
       mode="F"
       chamfer_steps="1"
       flexible="false"
       use_knot_distance="true"
       apply_no_radius="true"
       apply_with_radius="true"
       only_selected="false"
       hide_knots="false" />
    <inkscape:path-effect
       effect="fillet_chamfer"
       id="path-effect47"
       is_visible="true"
       lpeversion="1"
       nodesatellites_param="F,0,0,1,0,0.75,0,1 @ F,0,0,1,0,0.75,0,1 @ F,0,0,1,0,0.75,0,1 @ F,0,0,1,0,0.75,0,1"
       radius="0.75"
       unit="px"
       method="auto"
       mode="F"
       chamfer_steps="1"
       flexible="false"
       use_knot_distance="true"
       apply_no_radius="true"
       apply_with_radius="true"
       only_selected="false"
       hide_knots="false" />
  </defs>
  <g
     inkscape:label="Layer 1"
     inkscape:groupmode="layer"
     id="layer1"
     transform="translate(-2.6458333,-2.6458334)">
    <path
       style="opacity:1;fill:#ffffff;fill-opacity:1;stroke:none;stroke-width:0.247271;stroke-opacity:1"
       id="rect31"
       width="2.9320557"
       height="2.975174"
       x="35.400265"
       y="8.1493902"
       sodipodi:type="rect"
       transform="matrix(0,0.91928033,-0.75940538,0,19.417858,-25.952958)"
       d="m 36.150265,8.1493902 h 1.432055 a 0.75,0.75 45 0 1 0.75,0.75 v 1.4751738 a 0.75,0.75 135 0 1 -0.75,0.75 h -1.432055 a 0.75,0.75 45 0 1 -0.75,-0.75 V 8.8993902 a 0.75,0.75 135 0 1 0.75,-0.75 z"
       inkscape:path-effect="#path-effect47"
       inkscape:export-filename="Settings.svg"
       inkscape:export-xdpi="96"
       inkscape:export-ydpi="96" />
    <path
       style="opacity:1;fill:#ffffff;fill-opacity:1;stroke:none;stroke-width:0.247271;stroke-opacity:1"
       id="path47"
       width="2.9320557"
       height="2.975174"
       x="35.400265"
       y="8.1493902"
       sodipodi:type="rect"
       transform="matrix(-0.65002943,0.6500292,-0.53698056,-0.53698089,40.019512,-7.9088261)"
       d="m 36.150265,8.1493902 h 1.432055 a 0.75,0.75 45 0 1 0.75,0.75 v 1.4751738 a 0.75,0.75 135 0 1 -0.75,0.75 h -1.432055 a 0.75,0.75 45 0 1 -0.75,-0.75 V 8.8993902 a 0.75,0.75 135 0 1 0.75,-0.75 z"
       inkscape:path-effect="#path-effect49" />
    <path
       style="opacity:1;fill:#ffffff;fill-opacity:1;stroke:none;stroke-width:0.247271;stroke-opacity:1"
       id="path49"
       width="2.9320557"
       height="2.975174"
       x="35.400265"
       y="8.1493902"
       sodipodi:type="rect"
       transform="matrix(-0.91928022,0,0,-0.75940548,41.827954,19.417858)"
       d="m 36.150265,8.1493902 h 1.432055 a 0.75,0.75 45 0 1 0.75,0.75 v 1.4751738 a 0.75,0.75 135 0 1 -0.75,0.75 h -1.432055 a 0.75,0.75 45 0 1 -0.75,-0.75 V 8.8993902 a 0.75,0.75 135 0 1 0.75,-0.75 z"
       inkscape:path-effect="#path-effect51" />
    <path
       style="opacity:1;fill:#ffffff;fill-opacity:1;stroke:none;stroke-width:0.247271;stroke-opacity:1"
       id="path51"
       width="2.9320557"
       height="2.975174"
       x="35.400265"
       y="8.1493902"
       sodipodi:type="rect"
       transform="matrix(-0.65002943,-0.6500292,0.53698056,-0.53698089,23.78384,40.019507)"
       d="m 36.150265,8.1493902 h 1.432055 a 0.75,0.75 45 0 1 0.75,0.75 v 1.4751738 a 0.75,0.75 135 0 1 -0.75,0.75 h -1.432055 a 0.75,0.75 45 0 1 -0.75,-0.75 V 8.8993902 a 0.75,0.75 135 0 1 0.75,-0.75 z"
       inkscape:path-effect="#path-effect53" />
    <path
       style="opacity:1;fill:#ffffff;fill-opacity:1;stroke:none;stroke-width:0.247271;stroke-opacity:1"
       id="path53"
       width="2.9320557"
       height="2.975174"
       x="35.400265"
       y="8.1493902"
       sodipodi:type="rect"
       transform="matrix(0,-0.91928033,0.75940538,0,-3.5428574,41.827957)"
       d="m 36.150265,8.1493902 h 1.432055 a 0.75,0.75 45 0 1 0.75,0.75 v 1.4751738 a 0.75,0.75 135 0 1 -0.75,0.75 h -1.432055 a 0.75,0.75 45 0 1 -0.75,-0.75 V 8.8993902 a 0.75,0.75 135 0 1 0.75,-0.75 z"
       inkscape:path-effect="#path-effect55" />
    <path
       style="opacity:1;fill:#ffffff;fill-opacity:1;stroke:none;stroke-width:0.247271;stroke-opacity:1"
       id="path55"
       width="2.9320557"
       height="2.975174"
       x="35.400265"
       y="8.1493902"
       sodipodi:type="rect"
       transform="matrix(0.65002938,-0.65002925,0.53698062,0.53698085,-24.14451,23.783828)"
       d="m 36.150265,8.1493902 h 1.432055 a 0.75,0.75 45 0 1 0.75,0.75 v 1.4751738 a 0.75,0.75 135 0 1 -0.75,0.75 h -1.432055 a 0.75,0.75 45 0 1 -0.75,-0.75 V 8.8993902 a 0.75,0.75 135 0 1 0.75,-0.75 z"
       inkscape:path-effect="#path-effect57" />
    <path
       style="opacity:1;fill:#ffffff;fill-opacity:1;stroke:none;stroke-width:0.247271;stroke-opacity:1"
       id="path57"
       width="2.9320557"
       height="2.975174"
       x="35.400265"
       y="8.1493902"
       sodipodi:type="rect"
       transform="matrix(0.91928022,0,0,0.75940548,-25.952953,-3.5428583)"
       d="m 36.150265,8.1493902 h 1.432055 a 0.75,0.75 45 0 1 0.75,0.75 v 1.4751738 a 0.75,0.75 135 0 1 -0.75,0.75 h -1.432055 a 0.75,0.75 45 0 1 -0.75,-0.75 V 8.8993902 a 0.75,0.75 135 0 1 0.75,-0.75 z"
       inkscape:path-effect="#path-effect59" />
    <path
       style="opacity:1;fill:#ffffff;fill-opacity:1;stroke:none;stroke-width:0.247271;stroke-opacity:1"
       id="path59"
       width="2.9320557"
       height="2.975174"
       x="35.400265"
       y="8.1493902"
       sodipodi:type="rect"
       transform="matrix(0.65002927,0.65002937,-0.53698071,0.53698075,-7.9088304,-24.144512)"
       d="m 36.150265,8.1493902 h 1.432055 a 0.75,0.75 45 0 1 0.75,0.75 v 1.4751738 a 0.75,0.75 135 0 1 -0.75,0.75 h -1.432055 a 0.75,0.75 45 0 1 -0.75,-0.75 V 8.8993902 a 0.75,0.75 135 0 1 0.75,-0.75 z"
       inkscape:path-effect="#path-effect61" />
    <ellipse
       style="opacity:1;fill:#ffffff;fill-opacity:1;stroke:none;stroke-width:0.172986;stroke-opacity:1"
       id="circle62"
       cx="7.9374995"
       cy="7.937499"
       rx="1.5748043"
       ry="1.5748045" />
    <ellipse
       style="fill:none;fill-opacity:0;stroke:#ffffff;stroke-width:1.45936;stroke-dasharray:none;stroke-opacity:1"
       id="path2"
       cx="7.9374995"
       cy="7.937499"
       rx="3.4588916"
       ry="3.4588921" />
  </g>
</svg>
