<?xml version="1.0" encoding="UTF-8" standalone="no"?>
<!-- Created with Inkscape (http://www.inkscape.org/) -->

<svg
   width="40"
   height="40"
   viewBox="0 0 10.583333 10.583333"
   version="1.1"
   id="svg1"
   xmlns="http://www.w3.org/2000/svg"
   xmlns:svg="http://www.w3.org/2000/svg">
  <defs
     id="defs1" />
  <g
     id="layer1"
     transform="translate(-2.6458333,-2.6458332)">
    <path
       style="opacity:1;fill:#ffffff;fill-opacity:1;stroke:none;stroke-width:0.247271;stroke-opacity:1"
       id="rect31"
       width="2.9320557"
       height="2.975174"
       x="35.400265"
       y="8.1493902"
       transform="matrix(0,0.91928033,-0.75940538,0,19.417858,-25.952958)"
       d="m 36.150265,8.1493902 h 1.432055 a 0.75,0.75 45 0 1 0.75,0.75 v 1.4751738 a 0.75,0.75 135 0 1 -0.75,0.75 h -1.432055 a 0.75,0.75 45 0 1 -0.75,-0.75 V 8.8993902 a 0.75,0.75 135 0 1 0.75,-0.75 z" />
    <path
       style="opacity:1;fill:#ffffff;fill-opacity:1;stroke:none;stroke-width:0.247271;stroke-opacity:1"
       id="path47"
       width="2.9320557"
       height="2.975174"
       x="35.400265"
       y="8.1493902"
       transform="matrix(-0.65002943,0.6500292,-0.53698056,-0.53698089,40.019512,-7.9088261)"
       d="m 36.150265,8.1493902 h 1.432055 a 0.75,0.75 45 0 1 0.75,0.75 v 1.4751738 a 0.75,0.75 135 0 1 -0.75,0.75 h -1.432055 a 0.75,0.75 45 0 1 -0.75,-0.75 V 8.8993902 a 0.75,0.75 135 0 1 0.75,-0.75 z" />
    <path
       style="opacity:1;fill:#ffffff;fill-opacity:1;stroke:none;stroke-width:0.247271;stroke-opacity:1"
       id="path49"
       width="2.9320557"
       height="2.975174"
       x="35.400265"
       y="8.1493902"
       transform="matrix(-0.91928022,0,0,-0.75940548,41.827954,19.417858)"
       d="m 36.150265,8.1493902 h 1.432055 a 0.75,0.75 45 0 1 0.75,0.75 v 1.4751738 a 0.75,0.75 135 0 1 -0.75,0.75 h -1.432055 a 0.75,0.75 45 0 1 -0.75,-0.75 V 8.8993902 a 0.75,0.75 135 0 1 0.75,-0.75 z" />
    <path
       style="opacity:1;fill:#ffffff;fill-opacity:1;stroke:none;stroke-width:0.247271;stroke-opacity:1"
       id="path51"
       width="2.9320557"
       height="2.975174"
       x="35.400265"
       y="8.1493902"
       transform="matrix(-0.65002943,-0.6500292,0.53698056,-0.53698089,23.78384,40.019507)"
       d="m 36.150265,8.1493902 h 1.432055 a 0.75,0.75 45 0 1 0.75,0.75 v 1.4751738 a 0.75,0.75 135 0 1 -0.75,0.75 h -1.432055 a 0.75,0.75 45 0 1 -0.75,-0.75 V 8.8993902 a 0.75,0.75 135 0 1 0.75,-0.75 z" />
    <path
       style="opacity:1;fill:#ffffff;fill-opacity:1;stroke:none;stroke-width:0.247271;stroke-opacity:1"
       id="path53"
       width="2.9320557"
       height="2.975174"
       x="35.400265"
       y="8.1493902"
       transform="matrix(0,-0.91928033,0.75940538,0,-3.5428574,41.827957)"
       d="m 36.150265,8.1493902 h 1.432055 a 0.75,0.75 45 0 1 0.75,0.75 v 1.4751738 a 0.75,0.75 135 0 1 -0.75,0.75 h -1.432055 a 0.75,0.75 45 0 1 -0.75,-0.75 V 8.8993902 a 0.75,0.75 135 0 1 0.75,-0.75 z" />
    <path
       style="opacity:1;fill:#ffffff;fill-opacity:1;stroke:none;stroke-width:0.247271;stroke-opacity:1"
       id="path55"
       width="2.9320557"
       height="2.975174"
       x="35.400265"
       y="8.1493902"
       transform="matrix(0.65002938,-0.65002925,0.53698062,0.53698085,-24.14451,23.783828)"
       d="m 36.150265,8.1493902 h 1.432055 a 0.75,0.75 45 0 1 0.75,0.75 v 1.4751738 a 0.75,0.75 135 0 1 -0.75,0.75 h -1.432055 a 0.75,0.75 45 0 1 -0.75,-0.75 V 8.8993902 a 0.75,0.75 135 0 1 0.75,-0.75 z" />
    <path
       style="opacity:1;fill:#ffffff;fill-opacity:1;stroke:none;stroke-width:0.247271;stroke-opacity:1"
       id="path57"
       width="2.9320557"
       height="2.975174"
       x="35.400265"
       y="8.1493902"
       transform="matrix(0.91928022,0,0,0.75940548,-25.952953,-3.5428583)"
       d="m 36.150265,8.1493902 h 1.432055 a 0.75,0.75 45 0 1 0.75,0.75 v 1.4751738 a 0.75,0.75 135 0 1 -0.75,0.75 h -1.432055 a 0.75,0.75 45 0 1 -0.75,-0.75 V 8.8993902 a 0.75,0.75 135 0 1 0.75,-0.75 z" />
    <path
       style="opacity:1;fill:#ffffff;fill-opacity:1;stroke:none;stroke-width:0.247271;stroke-opacity:1"
       id="path59"
       width="2.9320557"
       height="2.975174"
       x="35.400265"
       y="8.1493902"
       transform="matrix(0.65002927,0.65002937,-0.53698071,0.53698075,-7.9088304,-24.144512)"
       d="m 36.150265,8.1493902 h 1.432055 a 0.75,0.75 45 0 1 0.75,0.75 v 1.4751738 a 0.75,0.75 135 0 1 -0.75,0.75 h -1.432055 a 0.75,0.75 45 0 1 -0.75,-0.75 V 8.8993902 a 0.75,0.75 135 0 1 0.75,-0.75 z" />
    <ellipse
       style="opacity:1;fill:#ffffff;fill-opacity:1;stroke:none;stroke-width:0.172986;stroke-opacity:1"
       id="circle62"
       cx="7.9374995"
       cy="7.937499"
       rx="1.5748043"
       ry="1.5748045" />
    <ellipse
       style="fill:none;fill-opacity:0;stroke:#ffffff;stroke-width:1.45936;stroke-dasharray:none;stroke-opacity:1"
       id="path2"
       cx="7.9374995"
       cy="7.937499"
       rx="3.4588916"
       ry="3.4588921" />
  </g>
</svg>
